<?xml version="1.0" encoding="UTF-8" standalone="no"?>
<!DOCTYPE svg PUBLIC "-//W3C//DTD SVG 1.1//EN" "http://www.w3.org/Graphics/SVG/1.1/DTD/svg11.dtd">
<svg width="100%" height="100%" viewBox="0 0 108 108" version="1.1" xmlns="http://www.w3.org/2000/svg" xmlns:xlink="http://www.w3.org/1999/xlink" xml:space="preserve" xmlns:serif="http://www.serif.com/" style="fill-rule:evenodd;clip-rule:evenodd;">
    <g id="Layer-1" serif:id="Layer 1" transform="matrix(1,0,0,1,-28.3873,4.45423)">
        <path id="rect5951" d="M133.03,49.117C133.03,20.93 110.146,-1.954 81.959,-1.954C53.772,-1.954 30.887,20.93 30.887,49.117C30.887,77.304 53.772,100.189 81.959,100.189C110.146,100.189 133.03,77.304 133.03,49.117Z" style="fill:rgb(0,51,102);stroke:rgb(233,30,99);stroke-width:5px;"/>
        <g transform="matrix(3.33333,0,0,3.33333,41.9587,9.1172)">
            <path d="M17,10.5L17,7C17,6.451 16.549,6 16,6L4,6C3.451,6 3,6.451 3,7L3,17C3,17.549 3.451,18 4,18L16,18C16.549,18 17,17.549 17,17L17,13.5L21,17.5L21,6.5L17,10.5Z" style="fill:white;fill-rule:nonzero;"/>
        </g>
    </g>
</svg>
